# Block
v 0.6579327 1.174574 0.5
v -0.3336172 1.3043 0.5
v -0.6579327 -1.174574 0.5
v 0.3336172 -1.3043 0.5
v -0.3336172 1.3043 -0.5
v 0.6579327 1.174574 -0.5
v 0.3336172 -1.3043 -0.5
v -0.6579327 -1.174574 -0.5
v 0.6579327 1.174574 -0.5
v 0.6579327 1.174574 0.5
v 0.3336172 -1.3043 0.5
v 0.3336172 -1.3043 -0.5
v 0.3336172 -1.3043 0.5
v -0.6579327 -1.174574 0.5
v -0.6579327 -1.174574 -0.5
v 0.3336172 -1.3043 -0.5
v -0.3336172 1.3043 0.5
v -0.3336172 1.3043 -0.5
v -0.6579327 -1.174574 -0.5
v -0.6579327 -1.174574 0.5
v 0.6579327 1.174574 -0.5
v -0.3336172 1.3043 -0.5
v -0.3336172 1.3043 0.5
v 0.6579327 1.174574 0.5
vn 0 0 1
vn 0 0 1
vn 0 0 1
vn 0 0 1
vn 0 0 -1
vn 0 0 -1
vn 0 0 -1
vn 0 0 -1
vn 0.9915498 -0.1297262 0
vn 0.9915498 -0.1297262 0
vn 0.9915498 -0.1297262 0
vn 0.9915498 -0.1297262 0
vn -0.1297262 -0.9915498 0
vn -0.1297262 -0.9915498 0
vn -0.1297262 -0.9915498 0
vn -0.1297262 -0.9915498 0
vn -0.9915498 0.1297262 0
vn -0.9915498 0.1297262 0
vn -0.9915498 0.1297262 0
vn -0.9915498 0.1297262 0
vn 0.1297262 0.9915498 0
vn 0.1297262 0.9915498 0
vn 0.1297262 0.9915498 0
vn 0.1297262 0.9915498 0
vt 0.25 1
vt 0 1
vt 0 0.375
vt 0.25 0.375
vt 0.25 1
vt 0 1
vt 0 0.375
vt 0.25 0.375
vt 0.25 1
vt 0 1
vt 0 0.375
vt 0.25 0.375
vt 0.25 1
vt 0 1
vt 0 0.75
vt 0.25 0.75
vt 0.25 1
vt 0 1
vt 0 0.375
vt 0.25 0.375
vt 0.25 1
vt 0 1
vt 0 0.75
vt 0.25 0.75
f 1/1/1 3/3/3 4/4/4
f 1/1/1 2/2/2 3/3/3
f 5/5/5 7/7/7 8/8/8
f 5/5/5 6/6/6 7/7/7
f 9/9/9 11/11/11 12/12/12
f 9/9/9 10/10/10 11/11/11
f 13/13/13 15/15/15 16/16/16
f 13/13/13 14/14/14 15/15/15
f 17/17/17 19/19/19 20/20/20
f 17/17/17 18/18/18 19/19/19
f 21/21/21 23/23/23 24/24/24
f 21/21/21 22/22/22 23/23/23

# Block
v -1.277512 2.675936 0.3125
v -1.811202 2.350667 0.3125
v -0.3474877 -0.05093641 0.3125
v 0.1862019 0.2743334 0.3125
v -1.811202 2.350667 -0.3125
v -1.277512 2.675936 -0.3125
v 0.1862019 0.2743334 -0.3125
v -0.3474877 -0.05093641 -0.3125
v -1.277512 2.675936 -0.3125
v -1.277512 2.675936 0.3125
v 0.1862019 0.2743334 0.3125
v 0.1862019 0.2743334 -0.3125
v 0.1862019 0.2743334 0.3125
v -0.3474877 -0.05093641 0.3125
v -0.3474877 -0.05093641 -0.3125
v 0.1862019 0.2743334 -0.3125
v -1.811202 2.350667 0.3125
v -1.811202 2.350667 -0.3125
v -0.3474877 -0.05093641 -0.3125
v -0.3474877 -0.05093641 0.3125
v -1.277512 2.675936 -0.3125
v -1.811202 2.350667 -0.3125
v -1.811202 2.350667 0.3125
v -1.277512 2.675936 0.3125
vn 0 0 1
vn 0 0 1
vn 0 0 1
vn 0 0 1
vn 0 0 -1
vn 0 0 -1
vn 0 0 -1
vn 0 0 -1
vn 0.8539033 0.5204317 0
vn 0.8539033 0.5204317 0
vn 0.8539033 0.5204317 0
vn 0.8539033 0.5204317 0
vn 0.5204317 -0.8539033 0
vn 0.5204317 -0.8539033 0
vn 0.5204317 -0.8539033 0
vn 0.5204317 -0.8539033 0
vn -0.8539033 -0.5204317 0
vn -0.8539033 -0.5204317 0
vn -0.8539033 -0.5204317 0
vn -0.8539033 -0.5204317 0
vn -0.5204317 0.8539033 0
vn -0.5204317 0.8539033 0
vn -0.5204317 0.8539033 0
vn -0.5204317 0.8539033 0
vt 0.15625 1
vt 0 1
vt 0 0.296875
vt 0.15625 0.296875
vt 0.15625 1
vt 0 1
vt 0 0.296875
vt 0.15625 0.296875
vt 0.15625 1
vt 0 1
vt 0 0.296875
vt 0.15625 0.296875
vt 0.15625 1
vt 0 1
vt 0 0.84375
vt 0.15625 0.84375
vt 0.15625 1
vt 0 1
vt 0 0.296875
vt 0.15625 0.296875
vt 0.15625 1
vt 0 1
vt 0 0.84375
vt 0.15625 0.84375
f 25/25/25 27/27/27 28/28/28
f 25/25/25 26/26/26 27/27/27
f 29/29/29 31/31/31 32/32/32
f 29/29/29 30/30/30 31/31/31
f 33/33/33 35/35/35 36/36/36
f 33/33/33 34/34/34 35/35/35
f 37/37/37 39/39/39 40/40/40
f 37/37/37 38/38/38 39/39/39
f 41/41/41 43/43/43 44/44/44
f 41/41/41 42/42/42 43/43/43
f 45/45/45 47/47/47 48/48/48
f 45/45/45 46/46/46 47/47/47

# Block
v 1.44134 2.332589 0.09937843
v 0.9205782 2.640134 0.2570085
v -0.1624624 0.7435063 0.3794053
v 0.3582999 0.4359604 0.2217753
v 0.7667001 2.68904 -0.3467753
v 1.287462 2.381494 -0.5044053
v 0.2044218 0.4848656 -0.3820085
v -0.3163405 0.7924114 -0.2243784
v 1.287462 2.381494 -0.5044053
v 1.44134 2.332589 0.09937843
v 0.3582999 0.4359604 0.2217753
v 0.2044218 0.4848656 -0.3820085
v 0.3582999 0.4359604 0.2217753
v -0.1624624 0.7435063 0.3794053
v -0.3163405 0.7924114 -0.2243784
v 0.2044218 0.4848656 -0.3820085
v 0.9205782 2.640134 0.2570085
v 0.7667001 2.68904 -0.3467753
v -0.3163405 0.7924114 -0.2243784
v -0.1624624 0.7435063 0.3794053
v 1.287462 2.381494 -0.5044053
v 0.7667001 2.68904 -0.3467753
v 0.9205782 2.640134 0.2570085
v 1.44134 2.332589 0.09937843
vn 0.2462049 -0.07824832 0.966054
vn 0.2462049 -0.07824832 0.966054
vn 0.2462049 -0.07824832 0.966054
vn 0.2462049 -0.07824832 0.966054
vn -0.2462049 0.07824832 -0.966054
vn -0.2462049 0.07824832 -0.966054
vn -0.2462049 0.07824832 -0.966054
vn -0.2462049 0.07824832 -0.966054
vn 0.8332196 -0.4920733 -0.2522081
vn 0.8332196 -0.4920733 -0.2522081
vn 0.8332196 -0.4920733 -0.2522081
vn 0.8332196 -0.4920733 -0.2522081
vn -0.4951043 -0.86703 0.05595284
vn -0.4951043 -0.86703 0.05595284
vn -0.4951043 -0.86703 0.05595284
vn -0.4951043 -0.86703 0.05595284
vn -0.8332196 0.4920733 0.2522081
vn -0.8332196 0.4920733 0.2522081
vn -0.8332196 0.4920733 0.2522081
vn -0.8332196 0.4920733 0.2522081
vn 0.4951043 0.86703 -0.05595284
vn 0.4951043 0.86703 -0.05595284
vn 0.4951043 0.86703 -0.05595284
vn 0.4951043 0.86703 -0.05595284
vt 0.15625 1
vt 0 1
vt 0 0.453125
vt 0.15625 0.453125
vt 0.15625 1
vt 0 1
vt 0 0.453125
vt 0.15625 0.453125
vt 0.15625 1
vt 0 1
vt 0 0.453125
vt 0.15625 0.453125
vt 0.15625 1
vt 0 1
vt 0 0.84375
vt 0.15625 0.84375
vt 0.15625 1
vt 0 1
vt 0 0.453125
vt 0.15625 0.453125
vt 0.15625 1
vt 0 1
vt 0 0.84375
vt 0.15625 0.84375
f 49/49/49 51/51/51 52/52/52
f 49/49/49 50/50/50 51/51/51
f 53/53/53 55/55/55 56/56/56
f 53/53/53 54/54/54 55/55/55
f 57/57/57 59/59/59 60/60/60
f 57/57/57 58/58/58 59/59/59
f 61/61/61 63/63/63 64/64/64
f 61/61/61 62/62/62 63/63/63
f 65/65/65 67/67/67 68/68/68
f 65/65/65 66/66/66 67/67/67
f 69/69/69 71/71/71 72/72/72
f 69/69/69 70/70/70 71/71/71

# Feuille
v 2.704064 3.67081 0.875
v 0.8916903 4.516564 0.875
v 0.04593575 2.70419 0.875
v 1.85831 1.858436 0.875
v 0.8916903 4.516564 -1.125
v 2.704064 3.67081 -1.125
v 1.85831 1.858436 -1.125
v 0.04593575 2.70419 -1.125
v 2.704064 3.67081 -1.125
v 2.704064 3.67081 0.875
v 1.85831 1.858436 0.875
v 1.85831 1.858436 -1.125
v 1.85831 1.858436 0.875
v 0.04593575 2.70419 0.875
v 0.04593575 2.70419 -1.125
v 1.85831 1.858436 -1.125
v 0.8916903 4.516564 0.875
v 0.8916903 4.516564 -1.125
v 0.04593575 2.70419 -1.125
v 0.04593575 2.70419 0.875
v 2.704064 3.67081 -1.125
v 0.8916903 4.516564 -1.125
v 0.8916903 4.516564 0.875
v 2.704064 3.67081 0.875
vn 0 0 1
vn 0 0 1
vn 0 0 1
vn 0 0 1
vn 0 0 -1
vn 0 0 -1
vn 0 0 -1
vn 0 0 -1
vn 0.906187 -0.4228773 0
vn 0.906187 -0.4228773 0
vn 0.906187 -0.4228773 0
vn 0.906187 -0.4228773 0
vn -0.4228773 -0.906187 0
vn -0.4228773 -0.906187 0
vn -0.4228773 -0.906187 0
vn -0.4228773 -0.906187 0
vn -0.906187 0.4228773 0
vn -0.906187 0.4228773 0
vn -0.906187 0.4228773 0
vn -0.906187 0.4228773 0
vn 0.4228773 0.906187 0
vn 0.4228773 0.906187 0
vn 0.4228773 0.906187 0
vn 0.4228773 0.906187 0
vt 0.796875 1
vt 0.296875 1
vt 0.296875 0.5
vt 0.796875 0.5
vt 0.796875 1
vt 0.296875 1
vt 0.296875 0.5
vt 0.796875 0.5
vt 0.796875 1
vt 0.296875 1
vt 0.296875 0.5
vt 0.796875 0.5
vt 0.796875 1
vt 0.296875 1
vt 0.296875 0.5
vt 0.796875 0.5
vt 0.796875 1
vt 0.296875 1
vt 0.296875 0.5
vt 0.796875 0.5
vt 0.796875 1
vt 0.296875 1
vt 0.296875 0.5
vt 0.796875 0.5
f 73/73/73 75/75/75 76/76/76
f 73/73/73 74/74/74 75/75/75
f 77/77/77 79/79/79 80/80/80
f 77/77/77 78/78/78 79/79/79
f 81/81/81 83/83/83 84/84/84
f 81/81/81 82/82/82 83/83/83
f 85/85/85 87/87/87 88/88/88
f 85/85/85 86/86/86 87/87/87
f 89/89/89 91/91/91 92/92/92
f 89/89/89 90/90/90 91/91/91
f 93/93/93 95/95/95 96/96/96
f 93/93/93 94/94/94 95/95/95

# Feuille
v -1.079982 4.492474 0.875
v -2.929973 3.732518 0.875
v -2.170018 1.882527 0.875
v -0.3200266 2.642482 0.875
v -2.929973 3.732518 -1.125
v -1.079982 4.492474 -1.125
v -0.3200266 2.642482 -1.125
v -2.170018 1.882527 -1.125
v -1.079982 4.492474 -1.125
v -1.079982 4.492474 0.875
v -0.3200266 2.642482 0.875
v -0.3200266 2.642482 -1.125
v -0.3200266 2.642482 0.875
v -2.170018 1.882527 0.875
v -2.170018 1.882527 -1.125
v -0.3200266 2.642482 -1.125
v -2.929973 3.732518 0.875
v -2.929973 3.732518 -1.125
v -2.170018 1.882527 -1.125
v -2.170018 1.882527 0.875
v -1.079982 4.492474 -1.125
v -2.929973 3.732518 -1.125
v -2.929973 3.732518 0.875
v -1.079982 4.492474 0.875
vn 0 0 1
vn 0 0 1
vn 0 0 1
vn 0 0 1
vn 0 0 -1
vn 0 0 -1
vn 0 0 -1
vn 0 0 -1
vn 0.9249956 0.3799778 0
vn 0.9249956 0.3799778 0
vn 0.9249956 0.3799778 0
vn 0.9249956 0.3799778 0
vn 0.3799778 -0.9249956 0
vn 0.3799778 -0.9249956 0
vn 0.3799778 -0.9249956 0
vn 0.3799778 -0.9249956 0
vn -0.9249956 -0.3799778 0
vn -0.9249956 -0.3799778 0
vn -0.9249956 -0.3799778 0
vn -0.9249956 -0.3799778 0
vn -0.3799778 0.9249956 0
vn -0.3799778 0.9249956 0
vn -0.3799778 0.9249956 0
vn -0.3799778 0.9249956 0
vt 0.796875 1
vt 0.296875 1
vt 0.296875 0.5
vt 0.796875 0.5
vt 0.796875 1
vt 0.296875 1
vt 0.296875 0.5
vt 0.796875 0.5
vt 0.796875 1
vt 0.296875 1
vt 0.296875 0.5
vt 0.796875 0.5
vt 0.796875 1
vt 0.296875 1
vt 0.296875 0.5
vt 0.796875 0.5
vt 0.796875 1
vt 0.296875 1
vt 0.296875 0.5
vt 0.796875 0.5
vt 0.796875 1
vt 0.296875 1
vt 0.296875 0.5
vt 0.796875 0.5
f 97/97/97 99/99/99 100/100/100
f 97/97/97 98/98/98 99/99/99
f 101/101/101 103/103/103 104/104/104
f 101/101/101 102/102/102 103/103/103
f 105/105/105 107/107/107 108/108/108
f 105/105/105 106/106/106 107/107/107
f 109/109/109 111/111/111 112/112/112
f 109/109/109 110/110/110 111/111/111
f 113/113/113 115/115/115 116/116/116
f 113/113/113 114/114/114 115/115/115
f 117/117/117 119/119/119 120/120/120
f 117/117/117 118/118/118 119/119/119

